<svg width="33" height="33" viewBox="0 0 33 33" fill="none" xmlns="http://www.w3.org/2000/svg">
<path fill-rule="evenodd" clip-rule="evenodd" d="M29.3 0.5H3.7C1.93269 0.5 0.5 1.93269 0.5 3.7V29.3C0.5 31.0673 1.93269 32.5 3.7 32.5H29.3C31.0673 32.5 32.5 31.0673 32.5 29.3V3.7C32.5 1.93269 31.0673 0.5 29.3 0.5ZM25.0603 10.483C25.9899 10.3755 26.8755 10.1373 27.7 9.78328C27.084 10.6737 26.3044 11.4559 25.4058 12.0831C25.4144 12.2739 25.4187 12.4655 25.4187 12.6579C25.4187 18.5296 20.7976 25.3 12.3445 25.3C9.74881 25.3 7.33401 24.5645 5.3 23.3042C5.66011 23.3458 6.02625 23.3667 6.3967 23.3667C8.55046 23.3667 10.5319 22.6561 12.1042 21.4641C10.0934 21.4283 8.39625 20.143 7.81129 18.378C8.09128 18.4288 8.37988 18.4571 8.67538 18.4571C9.09493 18.4571 9.50156 18.4029 9.88665 18.3013C7.78372 17.894 6.20027 16.0981 6.20027 13.9448V13.889C6.8197 14.2214 7.52871 14.4213 8.28167 14.4446C7.04886 13.6483 6.23818 12.288 6.23818 10.747C6.23818 9.93155 6.46476 9.16854 6.85932 8.51215C9.12681 11.201 12.5125 12.9703 16.3316 13.1552C16.254 12.8311 16.2127 12.4913 16.2127 12.1431C16.2127 9.68999 18.27 7.7 20.808 7.7C22.1295 7.7 23.3236 8.23977 24.1618 9.10357C25.2094 8.90365 26.1932 8.53381 27.0806 8.02486C26.7377 9.06275 26.0097 9.93322 25.0603 10.483Z" fill="#706458" fill-opacity="0.9"/>
</svg>
