<svg width="33" height="33" viewBox="0 0 33 33" fill="none" xmlns="http://www.w3.org/2000/svg">
<path fill-rule="evenodd" clip-rule="evenodd" d="M29.3 0.5H3.7C1.93269 0.5 0.5 1.93269 0.5 3.7V29.3C0.5 31.0673 1.93269 32.5 3.7 32.5H29.3C31.0673 32.5 32.5 31.0673 32.5 29.3V3.7C32.5 1.93269 31.0673 0.5 29.3 0.5ZM6.9 7.80246C6.9 9.18399 8.0205 10.3064 9.4062 10.3064C10.7875 10.3064 11.9109 9.18399 11.9109 7.80246C11.9109 6.4224 10.7875 5.3 9.4062 5.3C8.02196 5.3 6.9 6.42094 6.9 7.80246ZM7.3007 26.1H11.5991V12.2819H7.3007V26.1ZM27.7 26.1H23.4045V19.3802C23.4045 17.7774 23.3753 15.716 21.1708 15.716C18.9341 15.716 18.5903 17.4615 18.5903 19.2637V26.1H14.2947V12.2819H18.4183V14.17H18.4766C19.0507 13.084 20.4524 11.9383 22.5433 11.9383C26.8957 11.9383 27.7 14.8003 27.7 18.5213V26.1Z" fill="#706458" fill-opacity="0.9"/>
</svg>
