<svg width="33" height="33" viewBox="0 0 33 33" fill="none" xmlns="http://www.w3.org/2000/svg">
<path fill-rule="evenodd" clip-rule="evenodd" d="M10.1 0.5H22.9C28.2019 0.5 32.5 4.79807 32.5 10.1V22.9C32.5 28.2019 28.2019 32.5 22.9 32.5H10.1C4.79807 32.5 0.5 28.2019 0.5 22.9V10.1C0.5 4.79807 4.79807 0.5 10.1 0.5ZM26.1 5.3C26.9 5.3 27.7 6.1 27.7 6.9C27.7 7.7 26.9 8.5 26.1 8.5C25.3 8.5 24.5 7.7 24.5 6.9C24.5 6.1 25.3 5.3 26.1 5.3ZM24.5 16.5C24.5 12.088 20.912 8.5 16.5 8.5C12.088 8.5 8.5 12.088 8.5 16.5C8.5 20.912 12.088 24.5 16.5 24.5C20.912 24.5 24.5 20.912 24.5 16.5ZM16.5 11.7C13.849 11.7 11.7 13.849 11.7 16.5C11.7 19.151 13.849 21.3 16.5 21.3C19.151 21.3 21.3 19.151 21.3 16.5C21.3 13.849 19.151 11.7 16.5 11.7Z" fill="#706458" fill-opacity="0.9"/>
</svg>
