<svg width="33" height="33" viewBox="0 0 33 33" fill="none" xmlns="http://www.w3.org/2000/svg">
<path d="M29.3 0.5H3.7C1.93269 0.5 0.5 1.93269 0.5 3.7V29.3C0.5 31.0673 1.93269 32.5 3.7 32.5H16.5V20.4529H11.7V15.9353H16.5V13.5093C16.5 8.91638 18.8835 6.9 22.7799 6.9C24.6094 6.9 25.5937 7.03027 26.0719 7.09356L26.1 7.09727V11.4176H23.4424C21.7885 11.4176 21.3 12.273 21.3 14.0048V15.9353H26.0585L25.4006 20.4529H21.3V32.5H29.3C31.0673 32.5 32.5 31.0673 32.5 29.3V3.7C32.5 1.93269 31.0673 0.5 29.3 0.5Z" fill="#706458" fill-opacity="0.9"/>
</svg>
