<svg width="93" height="29" viewBox="0 0 93 29" fill="none" xmlns="http://www.w3.org/2000/svg">
<path d="M0.807367 23.196C0.807367 21.1333 1.8387 19.5807 3.90137 18.538C5.9867 17.4953 8.6727 16.9627 11.9594 16.94V16.158C11.9594 15.2287 11.8574 14.5033 11.6534 13.982C11.472 13.4607 11.1207 13.0753 10.5994 12.826C10.1007 12.554 9.36403 12.418 8.38937 12.418C7.2787 12.418 6.28137 12.5653 5.39737 12.86C4.51337 13.132 3.59537 13.4947 2.64337 13.948L1.58937 11.772C1.92937 11.4773 2.49603 11.126 3.28937 10.718C4.10537 10.31 5.0687 9.95867 6.17937 9.664C7.29003 9.34667 8.4347 9.188 9.61337 9.188C11.3587 9.188 12.7187 9.41467 13.6934 9.868C14.6907 10.3213 15.4047 11.0467 15.8354 12.044C16.266 13.0413 16.4814 14.3787 16.4814 16.056V26.46H18.3174V28.364C17.864 28.4773 17.218 28.5907 16.3794 28.704C15.5407 28.8173 14.804 28.874 14.1694 28.874C13.3987 28.874 12.8774 28.7607 12.6054 28.534C12.356 28.3073 12.2314 27.8427 12.2314 27.14V26.222C11.6194 26.902 10.826 27.514 9.85137 28.058C8.8767 28.602 7.77737 28.874 6.55337 28.874C5.5107 28.874 4.54737 28.6587 3.66337 28.228C2.80203 27.7747 2.1107 27.1287 1.58937 26.29C1.06803 25.4287 0.807367 24.3973 0.807367 23.196ZM8.72937 26.052C9.20537 26.052 9.74937 25.916 10.3614 25.644C10.9734 25.3493 11.506 24.998 11.9594 24.59V19.014C9.91937 19.014 8.38937 19.3653 7.36937 20.068C6.37203 20.748 5.87337 21.632 5.87337 22.72C5.87337 23.808 6.1227 24.6353 6.62137 25.202C7.1427 25.7687 7.84537 26.052 8.72937 26.052ZM24.3432 12.826L22.1672 12.214V9.868L27.8112 9.154H27.9132L28.7632 9.834V11.16L28.7292 11.976C29.5225 11.228 30.5538 10.582 31.8232 10.038C33.0925 9.494 34.3732 9.222 35.6652 9.222C37.0478 9.222 38.1245 9.48267 38.8952 10.004C39.6885 10.5027 40.2552 11.296 40.5952 12.384C40.9352 13.472 41.1052 14.9453 41.1052 16.804V26.188L43.1792 26.46V28.5H34.4072V26.46L36.2432 26.188V16.804C36.2432 15.6253 36.1638 14.7073 36.0052 14.05C35.8465 13.37 35.5518 12.8827 35.1212 12.588C34.7132 12.2707 34.1238 12.112 33.3532 12.112C32.0612 12.112 30.6785 12.6673 29.2052 13.778V26.154L31.2452 26.46V28.5H22.3712V26.46L24.3432 26.154V12.826ZM53.2938 28.806C51.8658 28.806 50.8118 28.4773 50.1318 27.82C49.4518 27.1627 49.1118 26.12 49.1118 24.692V12.214H46.9018V10.446C47.0831 10.378 47.4118 10.2647 47.8878 10.106C48.3638 9.92467 48.7264 9.77733 48.9758 9.664C49.3611 9.36933 49.6898 8.85933 49.9618 8.134C50.1658 7.658 50.5398 6.47933 51.0838 4.598H53.8038L53.9398 9.596H59.1418V12.214H53.9738V21.768C53.9738 23.0373 54.0078 23.9327 54.0758 24.454C54.1438 24.9753 54.2911 25.3153 54.5178 25.474C54.7444 25.61 55.1411 25.678 55.7078 25.678C56.2744 25.678 56.8638 25.6213 57.4758 25.508C58.0878 25.372 58.5978 25.2133 59.0058 25.032L59.6518 26.936C59.0171 27.412 58.0878 27.8427 56.8638 28.228C55.6398 28.6133 54.4498 28.806 53.2938 28.806ZM67.5067 6.502C66.6907 6.502 66.0447 6.264 65.5687 5.788C65.0927 5.312 64.8547 4.7 64.8547 3.952C64.8547 3.09066 65.1267 2.37667 65.6707 1.81C66.2147 1.24333 66.94 0.959998 67.8467 0.959998C68.7533 0.959998 69.4447 1.20933 69.9207 1.708C70.3967 2.184 70.6347 2.78467 70.6347 3.51C70.6347 4.41667 70.3627 5.142 69.8187 5.686C69.2747 6.23 68.5153 6.502 67.5407 6.502H67.5067ZM65.7047 12.826L63.2907 12.18V9.902L69.5127 9.154H69.5807L70.5327 9.834V26.188L72.8107 26.46V28.5H63.3247V26.46L65.7047 26.154V12.826ZM76.8058 19.15C76.8058 17.2007 77.1911 15.4667 77.9618 13.948C78.7551 12.4293 79.8771 11.2507 81.3278 10.412C82.8011 9.55067 84.5124 9.12 86.4618 9.12C87.3684 9.12 88.1504 9.188 88.8078 9.324C89.4651 9.46 90.2018 9.64133 91.0178 9.868L92.0038 10.14L91.7998 15.954H88.8418L87.9918 12.214C87.8558 11.6247 87.1871 11.33 85.9858 11.33C84.7164 11.33 83.7191 11.8853 82.9938 12.996C82.2911 14.1067 81.9284 15.8407 81.9058 18.198C81.9058 20.6913 82.3364 22.6067 83.1978 23.944C84.0591 25.2587 85.2038 25.916 86.6318 25.916C88.3544 25.916 89.9411 25.4513 91.3918 24.522L92.1738 26.29C91.5844 26.9247 90.6778 27.514 89.4538 28.058C88.2524 28.602 86.9491 28.874 85.5438 28.874C82.6424 28.874 80.4551 27.9787 78.9818 26.188C77.5311 24.3973 76.8058 22.0513 76.8058 19.15Z" fill="#534B42"/>
</svg>
