<svg width="114" height="45" viewBox="0 0 114 45" fill="none" xmlns="http://www.w3.org/2000/svg">
<path d="M11.156 29.696C11.156 33.402 13.808 35.374 16.902 35.374C19.69 35.374 21.696 33.708 22.58 32.722V33.64C22.58 35.068 22.988 35.374 24.518 35.374C25.878 35.374 27.884 35.068 28.666 34.864V32.96H26.83V22.556C26.83 17.626 25.164 15.688 19.962 15.688C16.12 15.688 12.72 17.592 11.938 18.272L12.992 20.448C14.08 19.938 16.154 18.918 18.738 18.918C21.662 18.918 22.308 20.04 22.308 22.658V23.44C16.154 23.474 11.156 25.378 11.156 29.696ZM19.078 32.552C17.378 32.552 16.222 31.43 16.222 29.22C16.222 27.18 18.024 25.514 22.308 25.514V31.09C21.424 31.872 20.064 32.552 19.078 32.552ZM34.6918 32.654L32.7198 32.96V35H41.5938V32.96L39.5538 32.654V20.278C40.5058 19.564 42.1038 18.612 43.7018 18.612C46.0478 18.612 46.5918 19.938 46.5918 23.304V32.688L44.7558 32.96V35H53.5278V32.96L51.4538 32.688V23.304C51.4538 17.864 50.1278 15.722 46.0138 15.722C43.2258 15.722 40.5058 17.15 39.0778 18.476L39.1118 17.66V16.334L38.2618 15.654H38.1598L32.5158 16.368V18.714L34.6918 19.326V32.654ZM63.6424 35.306C66.0904 35.306 68.8444 34.32 70.0004 33.436L69.3544 31.532C68.6404 31.838 67.2804 32.178 66.0564 32.178C64.4924 32.178 64.3224 31.906 64.3224 28.268V18.714H69.4904V16.096H64.2884L64.1524 11.098H61.4324C61.1604 12.05 60.6844 13.784 60.3104 14.634C60.0384 15.382 59.7324 15.858 59.3244 16.164C58.8144 16.402 57.8964 16.708 57.2504 16.946V18.714H59.4604V31.192C59.4604 34.116 60.8544 35.306 63.6424 35.306ZM77.8553 13.002H77.8893C79.8953 13.002 80.9833 11.778 80.9833 10.01C80.9833 8.65 80.1333 7.46 78.1953 7.46C76.3253 7.46 75.2033 8.752 75.2033 10.452C75.2033 11.88 76.1553 13.002 77.8553 13.002ZM76.0533 32.654L73.6733 32.96V35H83.1593V32.96L80.8813 32.688V16.334L79.9293 15.654H79.8613L73.6393 16.402V18.68L76.0533 19.326V32.654ZM87.1544 25.718C87.1544 31.226 89.8744 35.374 95.8924 35.374C98.9864 35.374 101.57 33.81 102.522 32.79L101.74 31.022C100.686 31.702 99.0884 32.416 96.9804 32.416C94.1924 32.416 92.2544 29.832 92.2544 24.698C92.2884 19.768 93.9204 17.83 96.3344 17.83C97.2524 17.83 98.1704 18.034 98.3404 18.714L99.1904 22.454H102.148L102.352 16.64C101.298 16.436 99.6324 15.62 96.8104 15.62C90.8264 15.62 87.1204 19.802 87.1544 25.718Z" fill="white"/>
</svg>
