<svg width="161" height="131" viewBox="0 0 161 131" fill="none" xmlns="http://www.w3.org/2000/svg">
<path d="M12.8747 67.6933C18.4312 67.4581 23.1429 67.1343 27.8258 67.0932C35.7705 66.9892 43.588 67.2608 50.7784 70.7136C58.0696 74.2245 61.8392 80.3433 61.264 88.9439C60.903 94.2248 59.1883 99.5227 57.9056 104.771C57.394 106.821 56.3375 108.806 55.1633 111.771C59.1673 109.491 62.2903 107.651 65.4709 105.945C73.2292 101.741 80.8603 97.2137 88.7937 93.56C99.646 88.4975 107.549 92.1123 110.989 103.38C112.335 107.8 112.634 112.714 113.363 117.426C113.574 118.845 113.585 120.299 113.712 122.02C119.438 115.594 124.801 109.409 130.335 103.471C143.258 89.6233 154.425 96.8191 158.548 108.532C159.652 111.664 160.019 115.219 160.416 118.643C160.608 120.949 159.611 123.218 157.166 123.653C154.953 124.072 153.926 122.281 153.427 120.197C152.906 118.149 152.518 116.029 151.788 114.111C150.932 111.87 150.042 109.609 148.768 107.626C145.173 102.057 140.968 101.426 135.514 106.062C131.659 109.325 128.19 113.161 124.73 116.903C121.511 120.384 118.416 124.037 115.322 127.69C113.709 129.553 112.028 131.377 109.568 130.905C106.741 130.37 106.388 127.722 106.05 125.281C105.602 122.178 105.607 118.987 104.993 115.938C104.267 112.075 103.452 108.211 102.163 104.622C100.4 99.7619 97.8272 98.4761 92.8368 100.136C88.0673 101.724 83.2473 103.632 78.7009 105.998C68.9815 111.115 59.4444 116.538 49.8857 121.998C47.6197 123.285 45.5986 123.914 43.7411 122.243C41.9629 120.667 42.3833 118.465 43.303 116.251C44.9503 112.312 46.7751 108.375 48.2328 104.376C49.4984 100.865 50.7399 97.24 51.3935 93.625C53.1618 83.9666 50.196 78.8609 41.7598 75.9365C35.4212 73.7241 28.7608 72.9228 21.9369 73.0253C17.0213 73.0816 12.0888 73.4775 7.18747 73.7418C4.59281 73.8905 1.90933 74.0379 0.884988 71.0013C-0.0481698 68.1171 1.71401 65.8408 3.53377 63.6977C4.3188 62.8035 5.21663 62.0244 6.08085 61.2258C7.8429 59.6482 9.54737 57.9375 11.4342 56.5317C25.4078 45.9854 27.909 32.1091 24.8827 16.7881C24.3168 13.9662 22.8891 11.3953 21.7711 8.75371C21.2289 7.4426 20.2786 6.29512 19.902 4.92992C19.6094 3.9625 19.5952 2.35745 20.1738 1.74332C20.7956 1.05434 22.303 0.926539 23.2246 0.959636C25.224 1.066 27.1775 2.49329 28.2669 4.02053C30.4122 7.05561 32.4397 10.3721 33.584 13.977C36.1508 21.9464 36.2068 30.4623 34.8227 39.1448C33.6404 46.5466 29.7726 52.5476 24.4696 57.6201C20.9695 60.8891 17.287 63.8532 12.8747 67.6933Z" fill="black"/>
</svg>
