<svg width="12" height="12" viewBox="0 0 12 12" fill="none" xmlns="http://www.w3.org/2000/svg">
<path fill-rule="evenodd" clip-rule="evenodd" d="M2.22917 2.36754C1.48648 2.40434 0.889889 2.98587 0.84169 3.72792C0.795511 4.43885 0.75 5.31362 0.75 6C0.75 6.68638 0.795511 7.56115 0.84169 8.27208C0.889889 9.01413 1.48648 9.59566 2.22917 9.63246C3.30464 9.68574 4.8418 9.75 6 9.75C7.1582 9.75 8.69536 9.68574 9.77083 9.63246C10.5135 9.59566 11.1101 9.01413 11.1583 8.27209C11.2045 7.56115 11.25 6.68638 11.25 6C11.25 5.31362 11.2045 4.43885 11.1583 3.72792C11.1101 2.98587 10.5135 2.40434 9.77083 2.36754C8.69536 2.31426 7.1582 2.25 6 2.25C4.8418 2.25 3.30464 2.31426 2.22917 2.36754ZM7.875 6L4.875 7.5V4.5L7.875 6Z" fill="white"/>
</svg>
