<svg width="12" height="12" viewBox="0 0 12 12" fill="none" xmlns="http://www.w3.org/2000/svg">
<g clip-path="url(#clip0_301_4050)">
<path d="M6.00002 0C4.81331 0 3.65327 0.35189 2.66657 1.01116C1.6799 1.67047 0.910864 2.60755 0.456712 3.70389C0.00259357 4.80026 -0.116224 6.00666 0.115303 7.17053C0.346795 8.33444 0.918229 9.40352 1.75735 10.2426C2.59648 11.0817 3.66559 11.6532 4.82947 11.8847C5.99336 12.1162 7.19975 11.9974 8.29609 11.5433C9.39247 11.0891 10.3295 10.3201 10.9888 9.33342C11.6481 8.34673 12 7.1867 12 6.00001C12 4.40869 11.3679 2.88258 10.2427 1.75737C9.11742 0.632127 7.59132 0 6.00002 0ZM8.75339 8.65284C8.72787 8.69524 8.69415 8.73214 8.65425 8.7614C8.61432 8.79066 8.56898 8.81168 8.52085 8.82326C8.47275 8.83484 8.4228 8.83675 8.37393 8.82886C8.32507 8.82097 8.27826 8.80347 8.23623 8.77735C6.82843 7.9154 5.05667 7.72386 2.96888 8.19793C2.92138 8.20927 2.87212 8.21106 2.82392 8.20318C2.77575 8.19532 2.72957 8.17797 2.68817 8.15216C2.64674 8.12631 2.61086 8.09251 2.58258 8.05269C2.55431 8.01287 2.53427 7.96783 2.52356 7.92019C2.51214 7.87241 2.51033 7.82284 2.51811 7.77432C2.52593 7.7258 2.54321 7.67932 2.56901 7.63749C2.5948 7.5957 2.62862 7.55939 2.66845 7.53066C2.70831 7.50193 2.75345 7.48133 2.80127 7.47007C5.0854 6.94811 7.04868 7.17318 8.62892 8.14047C8.71321 8.19201 8.77367 8.2749 8.79698 8.37092C8.82034 8.46697 8.80466 8.56834 8.75339 8.65284ZM9.48605 7.01994C9.41914 7.12289 9.31522 7.19617 9.19581 7.22469C9.0764 7.25321 8.9506 7.23476 8.84438 7.17318C7.02369 6.15754 4.87429 5.90611 2.86832 6.47404C2.80591 6.50887 2.73648 6.52925 2.66517 6.53372C2.59382 6.5382 2.52241 6.52665 2.45612 6.49992C2.38984 6.4732 2.33039 6.432 2.28212 6.37929C2.23385 6.32662 2.19796 6.26377 2.17712 6.19543C2.15629 6.12705 2.15101 6.0549 2.1617 5.98424C2.17238 5.91357 2.19873 5.84621 2.23884 5.78706C2.27894 5.72791 2.33179 5.67851 2.39347 5.64242C2.45518 5.60636 2.52415 5.58453 2.59536 5.57862C3.71502 5.2563 4.8878 5.16099 6.0448 5.29834C7.20181 5.43566 8.31972 5.80283 9.33281 6.37831C9.43575 6.44521 9.50902 6.54911 9.53753 6.66851C9.56605 6.78794 9.54762 6.91375 9.48605 7.01994ZM9.54829 5.32003C7.63289 4.17078 4.42939 4.06543 2.58101 4.62569C2.43878 4.66889 2.28519 4.65379 2.15409 4.58372C2.02298 4.51369 1.92507 4.39443 1.8819 4.25218C1.83872 4.10997 1.8538 3.95638 1.92385 3.82526C1.99387 3.69417 2.11314 3.59625 2.25538 3.55309C4.37672 2.91142 7.89625 3.03592 10.1229 4.35274C10.2374 4.43468 10.3168 4.55668 10.3455 4.69453C10.374 4.83234 10.3497 4.97589 10.2773 5.09663C10.2049 5.21733 10.0896 5.30634 9.95458 5.34595C9.8195 5.38559 9.67443 5.37292 9.54829 5.31046V5.32003Z" fill="white"/>
</g>
<defs>
<clipPath id="clip0_301_4050">
<rect width="12" height="12" fill="white"/>
</clipPath>
</defs>
</svg>
