<svg width="12" height="12" viewBox="0 0 12 12" fill="none" xmlns="http://www.w3.org/2000/svg">
<g clip-path="url(#clip0_301_4021)">
<path d="M5.25 3.81824V5.63667V6.36349V8.18189H6.75003V6.36349V5.63667V3.81824H5.25Z" fill="white"/>
<path d="M0.750008 6.34101C1.16423 6.34101 1.50002 6.00522 1.50002 5.59101C1.50002 5.17679 1.16423 4.841 0.750008 4.841C0.33579 4.841 0 5.17679 0 5.59101C0 6.00522 0.33579 6.34101 0.750008 6.34101Z" fill="white"/>
<path d="M0.750008 7.159C1.16423 7.159 1.50002 6.82322 1.50002 6.409C1.50002 5.99478 1.16423 5.659 0.750008 5.659C0.33579 5.659 0 5.99478 0 6.409C0 6.82322 0.33579 7.159 0.750008 7.159Z" fill="white"/>
<path d="M1.50002 5.591H0V6.40919H1.50002V5.591Z" fill="white"/>
<path d="M11.25 7.159C11.6642 7.159 12 6.82322 12 6.409C12 5.99478 11.6642 5.659 11.25 5.659C10.8358 5.659 10.5 5.99478 10.5 6.409C10.5 6.82322 10.8358 7.159 11.25 7.159Z" fill="white"/>
<path d="M11.25 6.34101C11.6642 6.34101 12 6.00522 12 5.59101C12 5.17679 11.6642 4.841 11.25 4.841C10.8358 4.841 10.5 5.17679 10.5 5.59101C10.5 6.00522 10.8358 6.34101 11.25 6.34101Z" fill="white"/>
<path d="M10.5 6.40919H12V5.591H10.5V6.40919Z" fill="white"/>
<path d="M3.34082 8.79554C3.75503 8.79554 4.09082 8.45975 4.09082 8.04554C4.09082 7.63132 3.75503 7.29553 3.34082 7.29553C2.92661 7.29553 2.59082 7.63132 2.59082 8.04554C2.59082 8.45975 2.92661 8.79554 3.34082 8.79554Z" fill="white"/>
<path d="M3.34082 9.61381C3.75503 9.61381 4.09082 9.27803 4.09082 8.86381C4.09082 8.44959 3.75503 8.11377 3.34082 8.11377C2.92661 8.11377 2.59082 8.44959 2.59082 8.86381C2.59082 9.27803 2.92661 9.61381 3.34082 9.61381Z" fill="white"/>
<path d="M4.09082 8.04553H2.59082V8.86372H4.09082V8.04553Z" fill="white"/>
<path d="M3.34082 3.88622C3.75503 3.88622 4.09082 3.55044 4.09082 3.13623C4.09082 2.72202 3.75503 2.38623 3.34082 2.38623C2.92661 2.38623 2.59082 2.72202 2.59082 3.13623C2.59082 3.55044 2.92661 3.88622 3.34082 3.88622Z" fill="white"/>
<path d="M3.34082 6.54523C3.75503 6.54523 4.09082 6.20945 4.09082 5.79523C4.09082 5.38101 3.75503 5.04523 3.34082 5.04523C2.92661 5.04523 2.59082 5.38101 2.59082 5.79523C2.59082 6.20945 2.92661 6.54523 3.34082 6.54523Z" fill="white"/>
<path d="M4.09082 3.13623H2.59082V5.8124H4.09082V3.13623Z" fill="white"/>
<path d="M8.65918 4.70478C9.07338 4.70478 9.40918 4.369 9.40918 3.95478C9.40918 3.54056 9.07338 3.20477 8.65918 3.20477C8.24498 3.20477 7.90918 3.54056 7.90918 3.95478C7.90918 4.369 8.24498 4.70478 8.65918 4.70478Z" fill="white"/>
<path d="M8.65918 3.88622C9.07338 3.88622 9.40918 3.55044 9.40918 3.13623C9.40918 2.72202 9.07338 2.38623 8.65918 2.38623C8.24498 2.38623 7.90918 2.72202 7.90918 3.13623C7.90918 3.55044 8.24498 3.88622 8.65918 3.88622Z" fill="white"/>
<path d="M7.90894 3.95441H9.40897V3.13623H7.90894V3.95441Z" fill="white"/>
<path d="M6 2.31824C6.41424 2.31824 6.75003 1.98246 6.75003 1.56824C6.75003 1.15403 6.41424 0.818237 6 0.818237C5.5858 0.818237 5.25 1.15403 5.25 1.56824C5.25 1.98246 5.5858 2.31824 6 2.31824Z" fill="white"/>
<path d="M6 1.50001C6.41424 1.50001 6.75003 1.16422 6.75003 0.750003C6.75003 0.335789 6.41424 0 6 0C5.5858 0 5.25 0.335789 5.25 0.750003C5.25 1.16422 5.5858 1.50001 6 1.50001Z" fill="white"/>
<path d="M5.25 1.56819H6.75003V0.75H5.25V1.56819Z" fill="white"/>
<path d="M6 12C6.41424 12 6.75003 11.6642 6.75003 11.25C6.75003 10.8358 6.41424 10.5 6 10.5C5.5858 10.5 5.25 10.8358 5.25 11.25C5.25 11.6642 5.5858 12 6 12Z" fill="white"/>
<path d="M6 11.182C6.41424 11.182 6.75003 10.8462 6.75003 10.432C6.75003 10.0178 6.41424 9.68201 6 9.68201C5.5858 9.68201 5.25 10.0178 5.25 10.432C5.25 10.8462 5.5858 11.182 6 11.182Z" fill="white"/>
<path d="M5.25 11.2502H6.75003V10.432H5.25V11.2502Z" fill="white"/>
<path d="M8.65918 9.61381C9.07338 9.61381 9.40918 9.27803 9.40918 8.86381C9.40918 8.44959 9.07338 8.11377 8.65918 8.11377C8.24498 8.11377 7.90918 8.44959 7.90918 8.86381C7.90918 9.27803 8.24498 9.61381 8.65918 9.61381Z" fill="white"/>
<path d="M8.65918 6.95478C9.07338 6.95478 9.40918 6.61899 9.40918 6.20478C9.40918 5.79056 9.07338 5.45477 8.65918 5.45477C8.24498 5.45477 7.90918 5.79056 7.90918 6.20478C7.90918 6.61899 8.24498 6.95478 8.65918 6.95478Z" fill="white"/>
<path d="M7.90894 8.8636H9.40897V6.20447H7.90894V8.8636Z" fill="white"/>
<path d="M6 4.56826C6.41424 4.56826 6.75003 4.23244 6.75003 3.81826C6.75003 3.40404 6.41424 3.06824 6 3.06824C5.5858 3.06824 5.25 3.40404 5.25 3.81826C5.25 4.23244 5.5858 4.56826 6 4.56826Z" fill="white"/>
<path d="M6 8.93201C6.41424 8.93201 6.75003 8.59623 6.75003 8.18201C6.75003 7.76779 6.41424 7.43201 6 7.43201C5.5858 7.43201 5.25 7.76779 5.25 8.18201C5.25 8.59623 5.5858 8.93201 6 8.93201Z" fill="white"/>
</g>
<defs>
<clipPath id="clip0_301_4021">
<rect width="12" height="12" fill="white"/>
</clipPath>
</defs>
</svg>
